<?xml version="1.0" encoding="utf-8"?>
<!-- Generator: Adobe Illustrator 26.1.0, SVG Export Plug-In . SVG Version: 6.00 Build 0)  -->
<svg version="1.1" id="图层_1" xmlns="http://www.w3.org/2000/svg" xmlns:xlink="http://www.w3.org/1999/xlink" x="0px" y="0px"
	 viewBox="0 0 338.81 60.03" style="enable-background:new 0 0 338.81 60.03;" xml:space="preserve">
<style type="text/css">
	.st0{fill:#040000;}
	.st1{fill:#FFFFFF;}
</style>
<rect y="-165.27" class="st0" width="338.81" height="55.43"/>
<g>
	<g>
		<path class="st0" d="M301.65,44.72c-1.35,0-2.45-1.1-2.45-2.45V22.4c0-1.35,1.1-2.45,2.45-2.45c1.35,0,2.45,1.1,2.45,2.45v19.87
			C304.1,43.62,303,44.72,301.65,44.72z"/>
	</g>
	<g>
		<g>
			<path class="st0" d="M301.65,17.02c-0.18,0-0.35-0.02-0.52-0.05c-0.17-0.04-0.34-0.08-0.5-0.15c-0.16-0.07-0.31-0.15-0.46-0.24
				c-0.15-0.1-0.28-0.21-0.41-0.33c-0.49-0.5-0.78-1.19-0.78-1.89c0-0.17,0.02-0.35,0.05-0.52c0.04-0.17,0.09-0.34,0.15-0.5
				c0.06-0.16,0.15-0.32,0.24-0.46c0.1-0.15,0.21-0.28,0.33-0.4c0.12-0.12,0.26-0.24,0.41-0.33c0.14-0.1,0.3-0.18,0.46-0.25
				c0.17-0.07,0.33-0.12,0.5-0.15c0.34-0.07,0.69-0.07,1.05,0c0.17,0.03,0.34,0.08,0.5,0.15c0.16,0.07,0.31,0.15,0.46,0.25
				c0.15,0.1,0.29,0.21,0.41,0.33c0.12,0.12,0.23,0.26,0.33,0.4c0.1,0.14,0.18,0.3,0.24,0.46s0.12,0.33,0.15,0.5
				c0.04,0.17,0.05,0.35,0.05,0.52c0,0.17-0.02,0.35-0.05,0.52c-0.04,0.17-0.09,0.34-0.15,0.5c-0.07,0.16-0.15,0.31-0.24,0.46
				c-0.1,0.14-0.21,0.28-0.33,0.4s-0.26,0.24-0.41,0.33c-0.14,0.1-0.3,0.18-0.46,0.24c-0.16,0.07-0.33,0.12-0.5,0.15
				C302,17,301.83,17.02,301.65,17.02z"/>
		</g>
	</g>
	<path class="st0" d="M186.03,14.12c0-1.35-1.1-2.45-2.45-2.45c-1.35,0-2.45,1.1-2.45,2.45v8.11c-1.93-1.44-4.3-2.28-6.9-2.28h-0.3
		c-6.61,0-11.79,5.45-11.79,12.4c0,6.86,5.36,12.44,11.94,12.44c6.58,0,11.94-5.58,11.94-12.44c0-0.12-0.01-0.25-0.01-0.37
		c0-0.03,0.01-0.06,0.01-0.09V14.12z M174.09,39.89c-3.89,0-7.05-3.38-7.05-7.54c0-4.21,3.03-7.51,6.9-7.51h0.3
		c3.87,0,6.9,3.3,6.9,7.51C181.13,36.51,177.97,39.89,174.09,39.89z"/>
	<g>
		<path class="st0" d="M134.7,38.97"/>
	</g>
	<path class="st0" d="M322.75,39.14c0,0,0.02-0.02,0.06-0.06c-0.02,0.02-0.34,0.27-1,0.49c-0.12,0.04-0.24,0.08-0.38,0.12
		c-0.02,0-0.03,0.01-0.05,0.01c-0.17,0.04-0.36,0.09-0.57,0.12l0,0c-0.22,0.04-0.46,0.07-0.71,0.09l0,0
		c-0.26,0.02-0.53,0.03-0.83,0.03c-3.88,0-7.05-3.34-7.05-7.45c0-0.04-0.01-0.07-0.01-0.11c0-0.04,0.01-0.07,0.01-0.11
		c0-4.11,3.16-7.45,7.05-7.45c0.3,0,0.57,0.01,0.83,0.03l0,0c0.26,0.02,0.5,0.05,0.71,0.09l0,0c0.21,0.04,0.39,0.08,0.57,0.12
		c0.02,0,0.03,0.01,0.05,0.01c0.14,0.04,0.27,0.08,0.38,0.12c0.66,0.23,0.98,0.47,1,0.49c-0.04-0.03-0.06-0.06-0.06-0.06
		c0.99,0.92,2.54,0.87,3.46-0.11c0.92-0.99,0.87-2.53-0.11-3.46c-0.2-0.19-1.9-1.69-5.28-2.06c-0.48-0.05-1-0.08-1.55-0.08
		c-0.62,0-1.22,0.05-1.82,0.14c-3.95,0.63-7.27,3.26-8.95,6.85c-0.08,0.18-0.16,0.36-0.24,0.55c-0.61,1.48-0.94,3.1-0.94,4.8
		c0,0,0,0,0,0v0c0,0.04,0.01,0.07,0.01,0.11c0,0.04-0.01,0.07-0.01,0.11v0v0c0,1.7,0.33,3.32,0.94,4.8
		c0.08,0.18,0.16,0.37,0.24,0.55c1.68,3.6,5,6.23,8.95,6.85c0.59,0.09,1.2,0.14,1.82,0.14c0.55,0,1.07-0.03,1.55-0.08
		c3.38-0.37,5.08-1.87,5.28-2.06c0.99-0.92,1.04-2.47,0.11-3.46C325.28,38.27,323.73,38.22,322.75,39.14z"/>
	<path class="st0" d="M286.57,19.95c-2.76,0-5.23,1.21-6.96,3.12c-1.72-1.91-4.2-3.12-6.96-3.12c-5.18,0-9.4,4.24-9.4,9.46v12.92
		c0,1.35,1.1,2.45,2.45,2.45s2.45-1.1,2.45-2.45V29.4c0-2.51,2.02-4.56,4.51-4.56c2.49,0,4.51,2.05,4.51,4.56v12.92
		c0,1.35,1.1,2.45,2.45,2.45c1.35,0,2.45-1.1,2.45-2.45V29.4c0-2.51,2.02-4.56,4.51-4.56s4.51,2.05,4.51,4.56v12.92
		c0,1.35,1.1,2.45,2.45,2.45s2.45-1.1,2.45-2.45V29.4C295.98,24.19,291.76,19.95,286.57,19.95z"/>
	<path class="st0" d="M209.59,22.41c0-1.35-1.1-2.45-2.45-2.45s-2.45,1.1-2.45,2.45V34.6c0,2.91-2.37,5.28-5.28,5.28
		c-2.91,0-5.28-2.37-5.28-5.28V22.41c0-1.35-1.1-2.45-2.45-2.45c-1.35,0-2.45,1.1-2.45,2.45V34.6c0,5.61,4.56,10.18,10.18,10.18
		c1.93,0,3.74-0.55,5.28-1.49v3.63c0,2.3-2.37,4.18-5.28,4.18c-2.21,0-4.21-1.11-4.97-2.77c-0.56-1.23-2.02-1.77-3.25-1.2
		c-1.23,0.56-1.77,2.02-1.2,3.25c1.57,3.42,5.27,5.62,9.42,5.62c5.61,0,10.18-4.07,10.18-9.07V22.41z"/>
	<g>
		<path class="st0" d="M235.4,42.25"/>
	</g>
	<path class="st0" d="M248.26,19.95c-0.05,0-0.1,0.01-0.15,0.02c-0.05,0-0.1-0.02-0.15-0.02c-6.61,0-11.79,5.45-11.79,12.4
		c0,6.86,5.36,12.44,11.94,12.44c2.64,0,5.07-0.9,7.05-2.41c0.03,1.33,1.11,2.4,2.44,2.4c1.35,0,2.45-1.1,2.45-2.45v-9.98
		C260.05,25.4,254.87,19.95,248.26,19.95z M248.11,39.89c-3.89,0-7.05-3.38-7.05-7.54c0-4.21,3.03-7.51,6.9-7.51
		c0.05,0,0.1-0.01,0.15-0.02c0.05,0,0.1,0.02,0.15,0.02c3.87,0,6.9,3.3,6.9,7.51C255.15,36.51,251.99,39.89,248.11,39.89z"/>
	<g>
		<path class="st0" d="M92.1,24.82h-0.3c-3.87,0-6.9,3.3-6.9,7.51c0,4.16,3.16,7.54,7.05,7.54c3.89,0,7.05-3.38,7.05-7.54
			C98.99,28.12,95.96,24.82,92.1,24.82z"/>
		<path class="st0" d="M127.13,24.82h-0.11c-3.08,0-5.62,2.09-6.53,5.06h13.18C132.75,26.91,130.21,24.82,127.13,24.82z"/>
		<path class="st0" d="M137.34,3.34h-3.39h-7.46H36.01h-7.46h-3.39c-7.75,0-14.03,6.28-14.03,14.03v10.84v0v10.84
			c0,7.75,6.28,14.03,14.03,14.03h3.39h7.46h90.49h7.46h3.39c7.75,0,14.03-6.28,14.03-14.03V28.21v0V17.37
			C151.37,9.62,145.09,3.34,137.34,3.34z M54.5,35.8c0,4.94-4.02,8.95-8.95,8.95c-2.56,0-4.87-1.09-6.5-2.82
			c-1.63,1.73-3.94,2.82-6.5,2.82c-4.94,0-8.95-4.02-8.95-8.95V22.23c0-1.35,1.1-2.45,2.45-2.45c1.35,0,2.45,1.1,2.45,2.45V35.8
			c0,2.24,1.82,4.06,4.06,4.06s4.06-1.82,4.06-4.06V22.23c0-1.35,1.1-2.45,2.45-2.45c1.35,0,2.45,1.1,2.45,2.45V35.8
			c0,2.24,1.82,4.06,4.06,4.06c2.24,0,4.06-1.82,4.06-4.06V22.23c0-1.35,1.1-2.45,2.45-2.45c1.35,0,2.45,1.1,2.45,2.45V35.8z
			 M76.79,42.3c0,1.35-1.1,2.45-2.45,2.45c-1.35,0-2.45-1.1-2.45-2.45V29.44c0-2.55-2.07-4.62-4.62-4.62c-2.54,0-4.61,2.06-4.62,4.6
			l-0.04,12.89c0,1.35-1.1,2.44-2.45,2.44c0,0,0,0,0,0c-1.35,0-2.44-1.1-2.44-2.45V14.1c0-1.35,1.1-2.45,2.45-2.45
			c1.35,0,2.45,1.1,2.45,2.45v7.05c1.38-0.78,2.97-1.22,4.66-1.22c5.24,0,9.51,4.27,9.51,9.51V42.3z M103.89,42.24
			c0,1.35-1.1,2.45-2.45,2.45c-1.31,0-2.38-1.04-2.44-2.33c-1.98,1.51-4.42,2.41-7.06,2.41c-6.58,0-11.94-5.58-11.94-12.44
			c0-6.95,5.18-12.4,11.79-12.4h0.3c6.61,0,11.79,5.45,11.79,12.4V42.24z M112,42.33c0,1.35-1.1,2.45-2.45,2.45
			c-1.35,0-2.45-1.1-2.45-2.45V14.12c0-1.35,1.1-2.45,2.45-2.45c1.35,0,2.45,1.1,2.45,2.45V42.33z M136.47,34.78H120.5
			c0.95,2.96,3.58,5.09,6.66,5.09c1.99,0,3.9-0.91,5.24-2.5c0.87-1.03,2.41-1.17,3.45-0.29c1.03,0.87,1.17,2.42,0.29,3.45
			c-2.27,2.69-5.54,4.24-8.98,4.24c-6.58,0-11.94-5.58-11.94-12.44c0-6.95,5.18-12.4,11.79-12.4h0.11c6.61,0,11.79,5.45,11.79,12.4
			C138.92,33.68,137.82,34.78,136.47,34.78z"/>
	</g>
	<path class="st0" d="M222.88,19.97L222.88,19.97c-5.56,0-10.07,4.51-10.07,10.07v2.33l0,0v9.83c0,1.33,0.99,2.51,2.32,2.58
		c1.41,0.07,2.58-1.05,2.58-2.44v-9.97l0,0v-2.65c0-2.68,2.17-4.85,4.85-4.85h0.65c2.68,0,4.85,2.17,4.85,4.85v0h0v12.48
		c0,1.33,0.99,2.51,2.32,2.58c1.41,0.07,2.58-1.05,2.58-2.44v-9.97h0v-2.33C232.95,24.47,228.44,19.97,222.88,19.97z"/>
</g>
<g>
	<g>
		<path class="st1" d="M301.65-122.5c-1.35,0-2.45-1.1-2.45-2.45v-19.87c0-1.35,1.1-2.45,2.45-2.45c1.35,0,2.45,1.1,2.45,2.45v19.87
			C304.1-123.59,303-122.5,301.65-122.5z"/>
	</g>
	<g>
		<g>
			<path class="st1" d="M301.65-150.2c-0.18,0-0.35-0.02-0.52-0.05c-0.17-0.04-0.34-0.08-0.5-0.15c-0.16-0.07-0.31-0.15-0.46-0.24
				c-0.15-0.1-0.28-0.21-0.41-0.33c-0.49-0.5-0.78-1.19-0.78-1.89c0-0.17,0.02-0.35,0.05-0.52c0.04-0.17,0.09-0.34,0.15-0.5
				c0.06-0.16,0.15-0.32,0.24-0.46c0.1-0.15,0.21-0.28,0.33-0.4c0.12-0.12,0.26-0.24,0.41-0.33c0.14-0.1,0.3-0.18,0.46-0.25
				c0.17-0.07,0.33-0.12,0.5-0.15c0.34-0.07,0.69-0.07,1.05,0c0.17,0.03,0.34,0.08,0.5,0.15c0.16,0.07,0.31,0.15,0.46,0.25
				c0.15,0.1,0.29,0.21,0.41,0.33c0.12,0.12,0.23,0.26,0.33,0.4c0.1,0.14,0.18,0.3,0.24,0.46c0.07,0.16,0.12,0.33,0.15,0.5
				c0.04,0.17,0.05,0.35,0.05,0.52c0,0.17-0.02,0.35-0.05,0.52c-0.04,0.17-0.09,0.34-0.15,0.5c-0.07,0.16-0.15,0.31-0.24,0.46
				c-0.1,0.14-0.21,0.28-0.33,0.4c-0.12,0.12-0.26,0.24-0.41,0.33c-0.14,0.1-0.3,0.18-0.46,0.24c-0.16,0.07-0.33,0.12-0.5,0.15
				C302-150.22,301.83-150.2,301.65-150.2z"/>
		</g>
	</g>
	<path class="st1" d="M186.03-153.09c0-1.35-1.1-2.45-2.45-2.45c-1.35,0-2.45,1.1-2.45,2.45v8.11c-1.93-1.44-4.3-2.28-6.9-2.28h-0.3
		c-6.61,0-11.79,5.45-11.79,12.4c0,6.86,5.36,12.44,11.94,12.44c6.58,0,11.94-5.58,11.94-12.44c0-0.12-0.01-0.25-0.01-0.37
		c0-0.03,0.01-0.06,0.01-0.09V-153.09z M174.09-127.32c-3.89,0-7.05-3.38-7.05-7.54c0-4.21,3.03-7.51,6.9-7.51h0.3
		c3.87,0,6.9,3.3,6.9,7.51C181.13-130.7,177.97-127.32,174.09-127.32z"/>
	<g>
		<path class="st1" d="M134.7-128.24"/>
	</g>
	<path class="st1" d="M322.75-128.07c0,0,0.02-0.02,0.06-0.06c-0.02,0.02-0.34,0.27-1,0.49c-0.12,0.04-0.24,0.08-0.38,0.12
		c-0.02,0-0.03,0.01-0.05,0.01c-0.17,0.04-0.36,0.09-0.57,0.12l0,0c-0.22,0.04-0.46,0.07-0.71,0.09l0,0
		c-0.26,0.02-0.53,0.03-0.83,0.03c-3.88,0-7.05-3.34-7.05-7.45c0-0.04-0.01-0.07-0.01-0.11c0-0.04,0.01-0.07,0.01-0.11
		c0-4.11,3.16-7.45,7.05-7.45c0.3,0,0.57,0.01,0.83,0.03l0,0c0.26,0.02,0.5,0.05,0.71,0.09l0,0c0.21,0.04,0.39,0.08,0.57,0.12
		c0.02,0,0.03,0.01,0.05,0.01c0.14,0.04,0.27,0.08,0.38,0.12c0.66,0.23,0.98,0.47,1,0.49c-0.04-0.03-0.06-0.06-0.06-0.06
		c0.99,0.92,2.54,0.87,3.46-0.11c0.92-0.99,0.87-2.53-0.11-3.46c-0.2-0.19-1.9-1.69-5.28-2.06c-0.48-0.05-1-0.08-1.55-0.08
		c-0.62,0-1.22,0.05-1.82,0.14c-3.95,0.63-7.27,3.26-8.95,6.85c-0.08,0.18-0.16,0.36-0.24,0.55c-0.61,1.48-0.94,3.1-0.94,4.8
		c0,0,0,0,0,0v0c0,0.04,0.01,0.07,0.01,0.11c0,0.04-0.01,0.07-0.01,0.11v0v0c0,1.7,0.33,3.32,0.94,4.8
		c0.08,0.18,0.16,0.37,0.24,0.55c1.68,3.6,5,6.23,8.95,6.85c0.59,0.09,1.2,0.14,1.82,0.14c0.55,0,1.07-0.03,1.55-0.08
		c3.38-0.37,5.08-1.87,5.28-2.06c0.99-0.92,1.04-2.47,0.11-3.46C325.28-128.94,323.73-128.99,322.75-128.07z"/>
	<path class="st1" d="M286.57-147.26c-2.76,0-5.23,1.21-6.96,3.12c-1.72-1.91-4.2-3.12-6.96-3.12c-5.18,0-9.4,4.24-9.4,9.46v12.92
		c0,1.35,1.1,2.45,2.45,2.45s2.45-1.1,2.45-2.45v-12.92c0-2.51,2.02-4.56,4.51-4.56c2.49,0,4.51,2.05,4.51,4.56v12.92
		c0,1.35,1.1,2.45,2.45,2.45c1.35,0,2.45-1.1,2.45-2.45v-12.92c0-2.51,2.02-4.56,4.51-4.56s4.51,2.05,4.51,4.56v12.92
		c0,1.35,1.1,2.45,2.45,2.45s2.45-1.1,2.45-2.45v-12.92C295.98-143.02,291.76-147.26,286.57-147.26z"/>
	<path class="st1" d="M209.59-144.8c0-1.35-1.1-2.45-2.45-2.45s-2.45,1.1-2.45,2.45v12.19c0,2.91-2.37,5.28-5.28,5.28
		c-2.91,0-5.28-2.37-5.28-5.28v-12.19c0-1.35-1.1-2.45-2.45-2.45c-1.35,0-2.45,1.1-2.45,2.45v12.19c0,5.61,4.56,10.18,10.18,10.18
		c1.93,0,3.74-0.55,5.28-1.49v3.63c0,2.3-2.37,4.18-5.28,4.18c-2.21,0-4.21-1.11-4.97-2.77c-0.56-1.23-2.02-1.77-3.25-1.2
		c-1.23,0.56-1.77,2.02-1.2,3.25c1.57,3.42,5.27,5.62,9.42,5.62c5.61,0,10.18-4.07,10.18-9.07V-144.8z"/>
	<g>
		<path class="st1" d="M235.4-124.97"/>
	</g>
	<path class="st1" d="M248.26-147.26c-0.05,0-0.1,0.01-0.15,0.02c-0.05,0-0.1-0.02-0.15-0.02c-6.61,0-11.79,5.45-11.79,12.4
		c0,6.86,5.36,12.44,11.94,12.44c2.64,0,5.07-0.9,7.05-2.41c0.03,1.33,1.11,2.4,2.44,2.4c1.35,0,2.45-1.1,2.45-2.45v-9.98
		C260.05-141.82,254.87-147.26,248.26-147.26z M248.11-127.32c-3.89,0-7.05-3.38-7.05-7.54c0-4.21,3.03-7.51,6.9-7.51
		c0.05,0,0.1-0.01,0.15-0.02c0.05,0,0.1,0.02,0.15,0.02c3.87,0,6.9,3.3,6.9,7.51C255.15-130.7,251.99-127.32,248.11-127.32z"/>
	<g>
		<path class="st1" d="M92.1-142.39h-0.3c-3.87,0-6.9,3.3-6.9,7.51c0,4.16,3.16,7.54,7.05,7.54c3.89,0,7.05-3.38,7.05-7.54
			C98.99-139.1,95.96-142.39,92.1-142.39z"/>
		<path class="st1" d="M127.13-142.39h-0.11c-3.08,0-5.62,2.09-6.53,5.06h13.18C132.75-140.31,130.21-142.39,127.13-142.39z"/>
		<path class="st1" d="M137.34-163.87h-3.39h-7.46H36.01h-7.46h-3.39c-7.75,0-14.03,6.28-14.03,14.03V-139v0v10.84
			c0,7.75,6.28,14.03,14.03,14.03h3.39h7.46h90.49h7.46h3.39c7.75,0,14.03-6.28,14.03-14.03V-139v0v-10.84
			C151.37-157.59,145.09-163.87,137.34-163.87z M54.5-131.41c0,4.94-4.02,8.95-8.95,8.95c-2.56,0-4.87-1.09-6.5-2.82
			c-1.63,1.73-3.94,2.82-6.5,2.82c-4.94,0-8.95-4.02-8.95-8.95v-13.57c0-1.35,1.1-2.45,2.45-2.45c1.35,0,2.45,1.1,2.45,2.45v13.57
			c0,2.24,1.82,4.06,4.06,4.06s4.06-1.82,4.06-4.06v-13.57c0-1.35,1.1-2.45,2.45-2.45c1.35,0,2.45,1.1,2.45,2.45v13.57
			c0,2.24,1.82,4.06,4.06,4.06c2.24,0,4.06-1.82,4.06-4.06v-13.57c0-1.35,1.1-2.45,2.45-2.45c1.35,0,2.45,1.1,2.45,2.45V-131.41z
			 M76.79-124.91c0,1.35-1.1,2.45-2.45,2.45c-1.35,0-2.45-1.1-2.45-2.45v-12.87c0-2.55-2.07-4.62-4.62-4.62
			c-2.54,0-4.61,2.06-4.62,4.6l-0.04,12.89c0,1.35-1.1,2.44-2.45,2.44c0,0,0,0,0,0c-1.35,0-2.44-1.1-2.44-2.45v-28.21
			c0-1.35,1.1-2.45,2.45-2.45c1.35,0,2.45,1.1,2.45,2.45v7.05c1.38-0.78,2.97-1.22,4.66-1.22c5.24,0,9.51,4.27,9.51,9.51V-124.91z
			 M103.89-124.98c0,1.35-1.1,2.45-2.45,2.45c-1.31,0-2.38-1.04-2.44-2.33c-1.98,1.51-4.42,2.41-7.06,2.41
			c-6.58,0-11.94-5.58-11.94-12.44c0-6.95,5.18-12.4,11.79-12.4h0.3c6.61,0,11.79,5.45,11.79,12.4V-124.98z M112-124.89
			c0,1.35-1.1,2.45-2.45,2.45c-1.35,0-2.45-1.1-2.45-2.45v-28.21c0-1.35,1.1-2.45,2.45-2.45c1.35,0,2.45,1.1,2.45,2.45V-124.89z
			 M136.47-132.44H120.5c0.95,2.96,3.58,5.09,6.66,5.09c1.99,0,3.9-0.91,5.24-2.5c0.87-1.03,2.41-1.17,3.45-0.29
			c1.03,0.87,1.17,2.42,0.29,3.45c-2.27,2.69-5.54,4.24-8.98,4.24c-6.58,0-11.94-5.58-11.94-12.44c0-6.95,5.18-12.4,11.79-12.4h0.11
			c6.61,0,11.79,5.45,11.79,12.4C138.92-133.53,137.82-132.44,136.47-132.44z"/>
	</g>
	<path class="st1" d="M222.88-147.25L222.88-147.25c-5.56,0-10.07,4.51-10.07,10.07v2.33l0,0v9.83c0,1.33,0.99,2.51,2.32,2.58
		c1.41,0.07,2.58-1.05,2.58-2.44v-9.97l0,0v-2.65c0-2.68,2.17-4.85,4.85-4.85h0.65c2.68,0,4.85,2.17,4.85,4.85l0,0h0v12.48
		c0,1.33,0.99,2.51,2.32,2.58c1.41,0.07,2.58-1.05,2.58-2.44v-9.97h0v-2.33C232.95-142.74,228.44-147.25,222.88-147.25z"/>
</g>
</svg>
