<?xml version="1.0" encoding="utf-8"?>
<!-- Generator: Adobe Illustrator 26.1.0, SVG Export Plug-In . SVG Version: 6.00 Build 0)  -->
<svg version="1.1" id="图层_1" xmlns="http://www.w3.org/2000/svg" xmlns:xlink="http://www.w3.org/1999/xlink" x="0px" y="0px"
	 viewBox="0 0 403.33 74.55" style="enable-background:new 0 0 403.33 74.55;" xml:space="preserve">
<style type="text/css">
	.st0{fill:#0F3285;}
	.st1{fill:#F5A519;}
</style>
<g>
	<path class="st0" d="M363.15,54.62c-1.66,0-3.01-1.35-3.01-3.01v-24.4c0-1.66,1.35-3.01,3.01-3.01s3.01,1.35,3.01,3.01v24.4
		C366.16,53.28,364.81,54.62,363.15,54.62z"/>
</g>
<g>
	<g>
		<path class="st1" d="M363.15,20.61c-0.22,0-0.43-0.02-0.64-0.07c-0.21-0.04-0.42-0.1-0.62-0.19c-0.2-0.08-0.39-0.18-0.56-0.3
			c-0.18-0.12-0.35-0.26-0.5-0.41c-0.61-0.61-0.96-1.46-0.96-2.32c0-0.21,0.02-0.43,0.06-0.64c0.04-0.21,0.11-0.42,0.19-0.61
			c0.08-0.2,0.18-0.39,0.3-0.57c0.12-0.18,0.26-0.35,0.41-0.5c0.15-0.15,0.32-0.29,0.5-0.41c0.18-0.12,0.36-0.22,0.56-0.31
			c0.2-0.08,0.41-0.15,0.62-0.18c0.42-0.09,0.85-0.09,1.28,0c0.2,0.04,0.42,0.1,0.61,0.18c0.2,0.09,0.39,0.19,0.56,0.31
			c0.18,0.12,0.35,0.26,0.5,0.41c0.15,0.15,0.28,0.31,0.41,0.5c0.12,0.18,0.22,0.37,0.3,0.57c0.08,0.2,0.15,0.4,0.19,0.61
			c0.04,0.21,0.07,0.43,0.07,0.64c0,0.21-0.02,0.43-0.07,0.64c-0.04,0.21-0.11,0.42-0.19,0.61c-0.08,0.2-0.18,0.39-0.3,0.57
			c-0.12,0.18-0.25,0.34-0.41,0.5c-0.15,0.15-0.32,0.29-0.5,0.41c-0.18,0.12-0.36,0.22-0.56,0.3c-0.2,0.09-0.41,0.15-0.61,0.19
			C363.58,20.59,363.37,20.61,363.15,20.61z"/>
	</g>
</g>
<path class="st0" d="M221.19,17.06c0-1.66-1.35-3.01-3-3.01c-1.66,0-3.01,1.35-3.01,3.01v9.96c-2.37-1.77-5.28-2.8-8.47-2.8h-0.37
	c-8.12,0-14.48,6.69-14.48,15.23c0,8.42,6.58,15.27,14.66,15.27c8.08,0,14.66-6.85,14.66-15.27c0-0.15-0.01-0.3-0.01-0.45
	c0-0.04,0.01-0.07,0.01-0.11V17.06z M206.53,48.7c-4.77,0-8.65-4.15-8.65-9.26c0-5.17,3.72-9.22,8.47-9.22h0.37
	c4.75,0,8.47,4.05,8.47,9.22C215.18,44.55,211.3,48.7,206.53,48.7z"/>
<g>
	<path class="st0" d="M158.17,47.57"/>
</g>
<path class="st0" d="M389.05,47.78c0,0,0.02-0.03,0.08-0.07c-0.03,0.02-0.42,0.33-1.23,0.61c-0.15,0.05-0.3,0.1-0.47,0.14
	c-0.02,0.01-0.04,0.01-0.06,0.01c-0.21,0.05-0.44,0.11-0.7,0.15l0,0c-0.27,0.05-0.56,0.09-0.88,0.11l0,0
	c-0.32,0.03-0.66,0.04-1.02,0.04c-4.77,0-8.65-4.1-8.65-9.14c0-0.05-0.01-0.09-0.01-0.14c0-0.05,0.01-0.09,0.01-0.14
	c0-5.04,3.88-9.14,8.65-9.14c0.36,0,0.7,0.02,1.02,0.04l0,0c0.32,0.03,0.61,0.07,0.88,0.11l0,0c0.25,0.04,0.48,0.1,0.7,0.15
	c0.02,0.01,0.04,0.01,0.06,0.01c0.17,0.05,0.33,0.1,0.47,0.14c0.81,0.28,1.2,0.58,1.23,0.61c-0.05-0.04-0.08-0.07-0.08-0.07
	c1.21,1.13,3.11,1.07,4.25-0.14c1.13-1.21,1.07-3.11-0.14-4.25c-0.25-0.24-2.33-2.07-6.48-2.53c-0.59-0.07-1.23-0.1-1.91-0.1
	c-0.76,0-1.5,0.06-2.23,0.17c-4.85,0.77-8.92,4-10.98,8.42c-0.1,0.22-0.2,0.44-0.29,0.67c-0.74,1.81-1.15,3.8-1.15,5.89c0,0,0,0,0,0
	v0c0,0.05,0.01,0.09,0.01,0.14c0,0.05-0.01,0.09-0.01,0.14v0v0c0,2.09,0.41,4.08,1.15,5.89c0.09,0.23,0.19,0.45,0.29,0.67
	c2.06,4.42,6.14,7.65,10.98,8.42c0.73,0.12,1.47,0.17,2.23,0.17c0.68,0,1.31-0.04,1.91-0.1c4.15-0.46,6.23-2.29,6.48-2.53
	c1.21-1.14,1.27-3.04,0.14-4.25C392.16,46.71,390.26,46.65,389.05,47.78z"/>
<path class="st0" d="M344.64,24.21c-3.39,0-6.43,1.48-8.54,3.82c-2.11-2.34-5.15-3.82-8.54-3.82c-6.37,0-11.54,5.21-11.54,11.61
	v15.87c0,1.66,1.35,3.01,3.01,3.01c1.66,0,3.01-1.35,3.01-3.01V35.82c0-3.09,2.48-5.6,5.53-5.6s5.53,2.51,5.53,5.6v15.87
	c0,1.66,1.35,3.01,3.01,3.01c1.66,0,3.01-1.35,3.01-3.01V35.82c0-3.09,2.48-5.6,5.53-5.6s5.53,2.51,5.53,5.6v15.87
	c0,1.66,1.35,3.01,3.01,3.01s3.01-1.35,3.01-3.01V35.82C356.18,29.42,351,24.21,344.64,24.21z"/>
<path class="st0" d="M250.12,27.24c0-1.66-1.35-3.01-3.01-3.01c-1.66,0-3.01,1.35-3.01,3.01V42.2c0,3.57-2.91,6.48-6.48,6.48
	s-6.48-2.91-6.48-6.48V27.24c0-1.66-1.35-3.01-3.01-3.01c-1.66,0-3.01,1.35-3.01,3.01V42.2c0,6.89,5.6,12.49,12.49,12.49
	c2.38,0,4.59-0.68,6.48-1.83v4.45c0,2.83-2.91,5.13-6.48,5.13c-2.71,0-5.17-1.37-6.1-3.4c-0.69-1.51-2.48-2.17-3.99-1.48
	c-1.51,0.69-2.17,2.48-1.48,3.99c1.93,4.2,6.47,6.91,11.56,6.91c6.89,0,12.49-5,12.49-11.14V27.24z"/>
<g>
	<path class="st0" d="M281.8,51.59"/>
</g>
<path class="st0" d="M297.59,24.21c-0.06,0-0.12,0.01-0.18,0.02c-0.06,0-0.12-0.02-0.18-0.02c-8.12,0-14.48,6.69-14.48,15.23
	c0,8.42,6.58,15.27,14.66,15.27c3.24,0,6.23-1.1,8.66-2.96c0.03,1.63,1.36,2.94,3,2.94c1.66,0,3.01-1.35,3.01-3.01V39.44
	C312.07,30.9,305.71,24.21,297.59,24.21z M297.41,48.7c-4.77,0-8.65-4.15-8.65-9.26c0-5.17,3.72-9.22,8.47-9.22
	c0.06,0,0.12-0.01,0.18-0.02c0.06,0,0.12,0.02,0.18,0.02c4.75,0,8.47,4.05,8.47,9.22C306.06,44.55,302.18,48.7,297.41,48.7z"/>
<g>
	<path class="st0" d="M105.86,30.19h-0.37c-4.75,0-8.47,4.05-8.47,9.22c0,5.1,3.88,9.26,8.65,9.26s8.65-4.15,8.65-9.26
		C114.33,34.24,110.61,30.19,105.86,30.19z"/>
	<path class="st0" d="M148.87,30.19h-0.14c-3.78,0-6.9,2.56-8.02,6.21h16.18C155.78,32.76,152.65,30.19,148.87,30.19z"/>
	<path class="st0" d="M161.41,3.82h-4.16h-9.16H37h-9.16h-4.16c-9.51,0-17.22,7.71-17.22,17.22v13.31v0v13.31
		c0,9.51,7.71,17.22,17.22,17.22h4.16H37h111.1h9.16h4.16c9.51,0,17.22-7.71,17.22-17.22V34.36v0V21.04
		C178.63,11.53,170.92,3.82,161.41,3.82z M59.7,43.67c0,6.06-4.93,10.99-10.99,10.99c-3.15,0-5.98-1.34-7.99-3.46
		c-2.01,2.13-4.84,3.46-7.99,3.46c-6.06,0-10.99-4.93-10.99-10.99V27.01c0-1.66,1.35-3.01,3.01-3.01c1.66,0,3.01,1.35,3.01,3.01
		v16.66c0,2.75,2.23,4.98,4.98,4.98s4.98-2.23,4.98-4.98V27.01c0-1.66,1.35-3.01,3.01-3.01c1.66,0,3.01,1.35,3.01,3.01v16.66
		c0,2.75,2.23,4.98,4.98,4.98c2.75,0,4.98-2.23,4.98-4.98V27.01c0-1.66,1.35-3.01,3.01-3.01c1.66,0,3.01,1.35,3.01,3.01V43.67z
		 M87.07,51.66c0,1.66-1.35,3.01-3.01,3.01s-3.01-1.35-3.01-3.01v-15.8c0-3.13-2.54-5.67-5.67-5.67c-3.11,0-5.66,2.53-5.67,5.65
		l-0.05,15.83c-0.01,1.66-1.35,3-3.01,3c0,0,0,0,0,0c-1.66,0-3-1.35-3-3.01V17.03c0-1.66,1.35-3.01,3.01-3.01
		c1.66,0,3.01,1.35,3.01,3.01v8.66c1.69-0.96,3.64-1.5,5.72-1.5c6.44,0,11.68,5.24,11.68,11.68V51.66z M120.34,51.58
		c0,1.66-1.35,3.01-3.01,3.01c-1.61,0-2.92-1.27-2.99-2.87c-2.43,1.86-5.43,2.96-8.66,2.96c-8.08,0-14.66-6.85-14.66-15.27
		c0-8.54,6.36-15.23,14.48-15.23h0.37c8.12,0,14.48,6.69,14.48,15.23V51.58z M130.3,51.69c0,1.66-1.35,3.01-3.01,3.01
		c-1.66,0-3.01-1.35-3.01-3.01V17.06c0-1.66,1.35-3.01,3.01-3.01c1.66,0,3.01,1.35,3.01,3.01V51.69z M160.34,42.42h-19.61
		c1.17,3.63,4.4,6.25,8.18,6.25c2.44,0,4.79-1.12,6.43-3.07c1.07-1.27,2.96-1.43,4.23-0.36c1.27,1.07,1.43,2.97,0.36,4.23
		c-2.79,3.31-6.81,5.21-11.03,5.21c-8.08,0-14.66-6.85-14.66-15.27c0-8.54,6.36-15.23,14.48-15.23h0.14
		c8.12,0,14.48,6.69,14.48,15.23C163.35,41.07,162,42.42,160.34,42.42z"/>
</g>
<path class="st0" d="M266.43,24.23L266.43,24.23c-6.83,0-12.36,5.53-12.36,12.36v2.86l0,0v12.07c0,1.63,1.22,3.09,2.84,3.17
	c1.73,0.09,3.17-1.29,3.17-3V39.45l0,0v-3.26c0-3.29,2.66-5.95,5.95-5.95h0.8c3.29,0,5.95,2.66,5.95,5.95v0h0v15.33
	c0,1.63,1.22,3.09,2.84,3.17c1.73,0.09,3.17-1.29,3.17-3V39.45h0v-2.86C278.79,29.77,273.26,24.23,266.43,24.23z"/>
</svg>
